<!--?xml version="1.0" standalone="no"?-->
              <svg id="sw-js-blob-svg" viewBox="0 0 100 100" xmlns="http://www.w3.org/2000/svg" version="1.1">
                    <defs> 
                        <linearGradient id="sw-gradient" x1="0" x2="1" y1="1" y2="0">
                            <stop id="stop1" stop-color="rgba(125, 143, 105, 1)" offset="0%"></stop>
                            <stop id="stop2" stop-color="rgba(230, 229, 163, 1)" offset="100%"></stop>
                        </linearGradient>
                    </defs>
                <path fill="url(#sw-gradient)" d="M15.5,-19.8C18.8,-15.7,19.3,-9.6,21.9,-2.8C24.4,4.1,28.9,11.7,27.7,18.2C26.6,24.6,19.7,30,12.5,31.3C5.2,32.7,-2.4,30.1,-10.5,27.7C-18.6,25.2,-27.2,22.9,-30.3,17.5C-33.4,12.1,-31,3.5,-27.9,-3.3C-24.7,-10.1,-20.9,-15.2,-16.1,-19C-11.3,-22.8,-5.7,-25.3,0.2,-25.5C6.1,-25.8,12.2,-23.8,15.5,-19.8Z" width="100%" height="100%" transform="translate(50 50)" stroke-width="0" style="transition: all 0.3s ease 0s;" stroke="url(#sw-gradient)"></path>
              </svg>